<?xml version="1.0" encoding="UTF-8"?>
<svg version="1.1" xmlns="http://www.w3.org/2000/svg" width="515" height="515">
<path d="M0 0 C169.95 0 339.9 0 515 0 C515 169.95 515 339.9 515 515 C345.05 515 175.1 515 0 515 C0 345.05 0 175.1 0 0 Z " fill="#000000" transform="translate(0,0)"/>
<path d="M0 0 C2.00334139 1.19862842 3.95747724 2.48088697 5.875 3.8125 C6.84373047 4.48104004 6.84373047 4.48104004 7.83203125 5.16308594 C12.46018578 8.38037252 17.00120392 11.70699941 21.52392578 15.0703125 C25.30446416 17.87175818 29.12084912 20.62306582 32.9375 23.375 C33.68136963 23.91253906 34.42523926 24.45007813 35.19165039 25.00390625 C43.04151297 30.67007513 50.95518735 36.24474308 58.875 41.8125 C68.4011962 48.50957065 77.90139648 55.23806737 87.32446289 62.07983398 C90.85658547 64.64284036 94.39747621 67.18815095 97.98046875 69.6796875 C98.61895752 70.12618652 99.25744629 70.57268555 99.9152832 71.03271484 C101.09313453 71.8543112 102.2749577 72.67025893 103.46166992 73.47900391 C107.34827228 76.19873209 111.21659231 79.07518299 112.37109375 83.875 C112.23799953 88.27598228 111.91134173 91.38437224 108.875 94.8125 C104.1899811 97.76609887 100.63537937 97.95232929 95.1171875 97.88671875 C93.94784668 97.87600342 92.77850586 97.86528809 91.57373047 97.85424805 C90.68314941 97.84047119 89.79256836 97.82669434 88.875 97.8125 C88.87868717 98.43811294 88.88237434 99.06372587 88.88617325 99.70829678 C88.97465984 114.95809934 89.0407753 130.20782269 89.08224869 145.45781612 C89.10284002 152.8327299 89.13089454 160.2074719 89.17675781 167.58227539 C89.21673117 174.01306817 89.24245772 180.44373649 89.25135398 186.87465006 C89.25655111 190.27720052 89.26869341 193.67939504 89.29792023 197.08183098 C89.32702734 200.88801915 89.33095274 204.69347399 89.32910156 208.49975586 C89.34348267 209.61753922 89.35786377 210.73532257 89.37268066 211.88697815 C89.3190074 222.10996605 85.95836894 230.36789495 78.875 237.8125 C70.37775564 244.78055567 62.17195087 247.28129297 51.35546875 247.2109375 C49.88488762 247.21524277 49.88488762 247.21524277 48.38459778 247.21963501 C46.32646095 247.22166553 44.26830438 247.21620697 42.21020508 247.20361328 C39.05441631 247.18745862 35.89989148 247.20354088 32.74414062 247.22265625 C30.73958051 247.22067533 28.73502117 247.21683479 26.73046875 247.2109375 C25.78672897 247.21701019 24.8429892 247.22308289 23.87065125 247.2293396 C22.99576553 247.21988312 22.12087982 247.21042664 21.21948242 247.20068359 C20.45085373 247.19829681 19.68222504 247.19591003 18.89030457 247.19345093 C16.875 246.8125 16.875 246.8125 15.12652588 245.6869812 C13.28323892 242.92618592 13.5033732 240.73272838 13.50610352 237.43261719 C13.49922012 236.11404724 13.49233673 234.79547729 13.48524475 233.43695068 C13.4900117 232.37972431 13.4900117 232.37972431 13.49487495 231.30113983 C13.50398957 229.08915508 13.49375657 226.87801739 13.47825623 224.66607666 C13.43817693 218.3778212 13.43694716 212.08963146 13.43920898 205.80126953 C13.43926026 201.95265995 13.42000186 198.10450454 13.38987541 194.25601959 C13.37909549 192.08498708 13.3911557 189.91483902 13.40370178 187.74383545 C13.38551069 180.76629348 13.35745847 175.41416189 8.875 169.8125 C6.37947863 167.91307876 6.37947863 167.91307876 3.875 166.8125 C3.215 166.4825 2.555 166.1525 1.875 165.8125 C-0.68094264 165.689367 -3.20857052 165.62413141 -5.765625 165.609375 C-6.52542664 165.60367493 -7.28522827 165.59797485 -8.0680542 165.59210205 C-9.67865607 165.58264808 -11.28927733 165.57611649 -12.89990234 165.57226562 C-15.35158632 165.56259238 -17.80242027 165.5315875 -20.25390625 165.5 C-21.82030753 165.49346648 -23.3867148 165.48821738 -24.953125 165.484375 C-26.04563568 165.4658548 -26.04563568 165.4658548 -27.16021729 165.44696045 C-32.68675898 165.47086543 -36.5783512 166.29811255 -40.58364868 170.25267029 C-45.55598388 176.70479771 -44.79996978 184.40814295 -44.7265625 192.14453125 C-44.73206951 193.62807884 -44.74020029 195.11161878 -44.75082397 196.59513855 C-44.77360037 200.47880596 -44.76952709 204.3619079 -44.75701904 208.24560547 C-44.73863314 214.47826545 -44.74863226 220.71060062 -44.78287888 226.94318199 C-44.78898397 229.11657518 -44.77572992 231.28926304 -44.76089478 233.46260071 C-44.76637833 235.43561409 -44.76637833 235.43561409 -44.77197266 237.44848633 C-44.76799469 238.60794266 -44.76401672 239.76739899 -44.75991821 240.96199036 C-45.125 243.8125 -45.125 243.8125 -46.37376404 245.68301392 C-48.55925956 247.09258226 -49.90366415 247.20998042 -52.49780273 247.24829102 C-53.37979843 247.26743057 -54.26179413 247.28657013 -55.17051697 247.30628967 C-56.12358231 247.30962814 -57.07664764 247.31296661 -58.05859375 247.31640625 C-59.04690689 247.32639145 -60.03522003 247.33637665 -61.05348206 247.34666443 C-63.15076513 247.36186654 -65.24812087 247.36888958 -67.34545898 247.3684082 C-70.51997959 247.37491287 -73.69127544 247.42921318 -76.86523438 247.48632812 C-88.01081859 247.5784213 -96.75873136 247.47503694 -106.125 240.8125 C-106.72546143 240.43391846 -107.32592285 240.05533691 -107.94458008 239.6652832 C-114.19166049 235.23614143 -118.23692885 227.05647641 -120.125 219.8125 C-120.41011868 215.85177342 -120.3775526 211.90151916 -120.35205078 207.93212891 C-120.35234283 206.74131714 -120.35263489 205.55050537 -120.35293579 204.3236084 C-120.35178426 201.07193181 -120.34177944 197.82042916 -120.32778788 194.5687871 C-120.31525383 191.16552523 -120.31410791 187.76225966 -120.31173706 184.35897827 C-120.30553013 177.9205225 -120.28913001 171.48213494 -120.26903808 165.04370916 C-120.24665453 157.71119194 -120.23567948 150.37867141 -120.22564721 143.04612851 C-120.20476305 127.96821438 -120.16960244 112.89036403 -120.125 97.8125 C-121.15705566 97.84585449 -122.18911133 97.87920898 -123.25244141 97.91357422 C-124.6188001 97.94054954 -125.98517503 97.96671114 -127.3515625 97.9921875 C-128.36972046 98.02832153 -128.36972046 98.02832153 -129.40844727 98.06518555 C-133.67818379 98.12488399 -136.22224677 97.72359025 -139.5 94.9375 C-142.77326761 91.46280054 -143.29050172 88.8631612 -143.6484375 84.078125 C-142.04139935 77.12228822 -134.86817315 73.31095912 -129.3125 69.6875 C-123.11659782 65.55373818 -117.04012492 61.33941975 -111.125 56.8125 C-105.41285275 52.45483874 -99.57764605 48.33509092 -93.625 44.3125 C-86.924026 39.78406792 -80.40396458 35.08580066 -73.96826172 30.18920898 C-68.84617827 26.30897831 -63.60200452 22.64557857 -58.2824707 19.04223633 C-54.60872532 16.54552927 -50.98282766 13.99879109 -47.3984375 11.375 C-46.6029248 10.79290771 -45.80741211 10.21081543 -44.98779297 9.61108398 C-43.45954558 8.48819008 -41.93486918 7.36041273 -40.41455078 6.22680664 C-28.53449024 -2.49765531 -14.22585339 -6.59489842 0 0 Z " fill="#FEFEFE" transform="translate(273.125,136.1875)"/>
</svg>
