<?xml version="1.0" encoding="UTF-8"?>
<svg version="1.1" xmlns="http://www.w3.org/2000/svg" width="515" height="515">
<path d="M0 0 C169.95 0 339.9 0 515 0 C515 169.95 515 339.9 515 515 C345.05 515 175.1 515 0 515 C0 345.05 0 175.1 0 0 Z " fill="#000000" transform="translate(0,0)"/>
<path d="M0 0 C37.95 0 75.9 0 115 0 C115 36.3 115 72.6 115 110 C77.05 110 39.1 110 0 110 C0 73.7 0 37.4 0 0 Z " fill="#FCFCFC" transform="translate(134,278)"/>
<path d="M0 0 C37.95 0 75.9 0 115 0 C115 36.3 115 72.6 115 110 C77.05 110 39.1 110 0 110 C0 73.7 0 37.4 0 0 Z " fill="#FEFEFE" transform="translate(134,156)"/>
<path d="M0 0 C37.95 0 75.9 0 115 0 C115 35.97 115 71.94 115 109 C77.05 109 39.1 109 0 109 C0 73.03 0 37.06 0 0 Z " fill="#FEFEFE" transform="translate(275,146)"/>
<path d="M0 0 C37.62 0 75.24 0 114 0 C114 35.97 114 71.94 114 109 C76.38 109 38.76 109 0 109 C0 73.03 0 37.06 0 0 Z " fill="#FFFFFF" transform="translate(264,279)"/>
</svg>
