<?xml version="1.0" encoding="UTF-8"?>
<svg version="1.1" xmlns="http://www.w3.org/2000/svg" width="515" height="515">
<path d="M0 0 C169.95 0 339.9 0 515 0 C515 169.95 515 339.9 515 515 C345.05 515 175.1 515 0 515 C0 345.05 0 175.1 0 0 Z " fill="#000000" transform="translate(0,0)"/>
<path d="M0 0 C4.84115976 2.33092877 7.70301121 5.14098526 10 10 C10.31583583 13.69324151 10.23676061 17.30390375 10 21 C10.66644531 21.14695313 11.33289063 21.29390625 12.01953125 21.4453125 C27.85367345 25.2986562 40.6811024 34.78877743 49.54296875 48.48046875 C57.12581952 61.59290507 59.4948082 74.12183338 58.84375 89.1640625 C58.78805727 91.86071189 58.73711977 94.55710475 58.69140625 97.25390625 C58.61443313 101.43657618 58.51014356 105.61300491 58.30419922 109.79150391 C57.07266817 127.44625986 57.07266817 127.44625986 64.33203125 142.84277344 C68.3152914 146.87744423 72.617779 150.39418713 77.27966309 153.61849976 C79 156 79 156 79 166 C23.89 166 -31.22 166 -88 166 C-88 156 -88 156 -86.27767944 153.65618896 C-85.09681259 152.86296234 -85.09681259 152.86296234 -83.89208984 152.05371094 C-75.61329201 145.73715196 -68.89915252 140.21691537 -67.41894531 129.43164062 C-66.78526059 121.47705056 -67.13771305 113.46992244 -67.52325439 105.51104736 C-67.79206386 99.53741406 -67.88138529 93.55781126 -67.9867363 87.57952118 C-68.03726468 85.52618349 -68.12986665 83.47866209 -68.2315979 81.42730713 C-68.71758603 66.51607823 -64.06135768 54.84811952 -55 43 C-54.46761719 42.27296875 -53.93523437 41.5459375 -53.38671875 40.796875 C-45.93049654 31.39796462 -34.37819032 24.4568853 -23 21 C-21.68 21 -20.36 21 -19 21 C-19.04640625 20.20335937 -19.0928125 19.40671875 -19.140625 18.5859375 C-19.43581337 9.92005044 -19.43581337 9.92005044 -17.3125 5.4375 C-12.08676473 -0.07070745 -7.43687007 -1.06241001 0 0 Z " fill="#FEFEFE" transform="translate(262,160)"/>
<path d="M0 0 C3.81316478 1.58956284 6.372784 4.00760697 9.3125 6.875 C10.21613281 7.73867187 11.11976563 8.60234375 12.05078125 9.4921875 C14 12 14 12 14.07421875 14.06640625 C12.62189968 16.68058057 10.80579271 18.15879769 8.5 20.0625 C-9.30333706 35.68480147 -15.69661387 54.45845358 -20 77 C-26.27 77 -32.54 77 -39 77 C-39 67.36732812 -38.53091398 59.44451066 -35.4375 50.375 C-35.17356445 49.59938721 -34.90962891 48.82377441 -34.63769531 48.0246582 C-28.05239968 29.40882683 -16.19447465 11.60973753 0 0 Z " fill="#FBFBFB" transform="translate(194,161)"/>
<path d="M0 0 C19.18360725 11.04815077 31.94911429 33.17769013 38 54 C39.93830134 61.68180342 41 69.04357542 41 77 C34.4 77 27.8 77 21 77 C20.62875 74.339375 20.2575 71.67875 19.875 68.9375 C16.41032328 47.15868454 4.60381059 27.43448703 -13 14 C-8.88380164 9.08064098 -4.59589638 4.47352044 0 0 Z " fill="#FBFBFB" transform="translate(319,161)"/>
<path d="M0 0 C12.87 0 25.74 0 39 0 C37.8466244 8.07362921 36.22592172 12.25453471 30.0625 17.5 C24.48229299 20.21667973 17.99328956 19.8986478 12 19 C6.30692211 16.60383511 3.18857769 12.49661418 0.59375 7.02734375 C0 5 0 5 0 0 Z " fill="#FCFCFC" transform="translate(238,336)"/>
</svg>
