<?xml version="1.0" encoding="UTF-8"?>
<svg version="1.1" xmlns="http://www.w3.org/2000/svg" width="515" height="515">
<path d="M0 0 C169.95 0 339.9 0 515 0 C515 169.95 515 339.9 515 515 C345.05 515 175.1 515 0 515 C0 345.05 0 175.1 0 0 Z " fill="#000000" transform="translate(0,0)"/>
<path d="M0 0 C2.10201896 -0.00216678 4.20349483 -0.02030814 6.30541992 -0.03930664 C18.22623933 -0.09102386 30.00562201 0.67038403 41.2565918 4.93530273 C41.97226318 5.20060791 42.68793457 5.46591309 43.42529297 5.73925781 C58.55752235 11.4992897 71.32523373 20.31124751 78.5690918 35.18530273 C78.95581055 35.95874023 79.3425293 36.73217773 79.7409668 37.52905273 C83.78915487 46.09478402 84.93516951 53.91478985 84.8815918 63.31030273 C84.87421997 64.83445801 84.87421997 64.83445801 84.86669922 66.3894043 C84.49487513 90.3615705 73.82704373 107.0942499 57.2331543 123.49389648 C51.42787334 128.89300591 45.15343695 133.66508543 38.80883789 138.40576172 C28.73044137 145.71209019 28.73044137 145.71209019 21.1315918 155.37280273 C20.65850586 156.19135742 20.18541992 157.00991211 19.69799805 157.85327148 C16.50685912 164.4453474 17.11435679 170.55159284 16.5690918 178.18530273 C1.7190918 178.18530273 -13.1309082 178.18530273 -28.4309082 178.18530273 C-28.4309082 141.6464033 -28.4309082 141.6464033 -14.4309082 126.18530273 C-8.82865881 120.59216269 -2.80760418 115.64261076 3.4440918 110.81030273 C18.8118067 99.01987192 18.8118067 99.01987192 29.5690918 83.18530273 C29.93905273 82.41702148 30.30901367 81.64874023 30.69018555 80.85717773 C32.85720483 74.26943913 32.88021544 64.90961515 29.8815918 58.56030273 C26.11607634 52.49874127 21.22645132 48.6411822 14.5690918 46.18530273 C9.45125108 45.03884647 4.41161961 45.00190456 -0.8059082 44.99780273 C-2.02407227 44.97943359 -2.02407227 44.97943359 -3.2668457 44.96069336 C-17.37468366 44.92678029 -28.74926426 50.83737036 -38.8918457 60.43920898 C-42.23974087 64.06008637 -44.9574708 67.96102563 -47.5793457 72.13061523 C-49.4309082 74.18530273 -49.4309082 74.18530273 -51.8527832 74.77124023 C-55.40492926 73.96393431 -56.81974383 72.32238443 -59.3059082 69.68530273 C-60.18118164 68.76491211 -61.05645508 67.84452148 -61.95825195 66.89624023 C-64.51164228 64.09678859 -67.04066673 61.28763604 -69.48950195 58.39624023 C-71.06746075 56.59920869 -72.6776319 54.87796162 -74.34106445 53.16186523 C-74.85032471 52.62932129 -75.35958496 52.09677734 -75.88427734 51.5480957 C-76.90086748 50.48801765 -77.92720583 49.43718717 -78.96386719 48.39672852 C-82.42109483 44.76102067 -82.42109483 44.76102067 -82.46606445 42.12280273 C-73.0871065 24.56822484 -52.94030747 10.66104466 -34.27270508 4.46948242 C-22.8860827 1.13343779 -11.81549109 -0.00135795 0 0 Z " fill="#FDFDFD" transform="translate(254.430908203125,131.814697265625)"/>
<path d="M0 0 C5.57617516 4.22578619 11.65366666 10.23891416 12.87109375 17.41796875 C13.64556013 28.32397885 12.94868092 36.45622906 6.05859375 45.23046875 C0.84811699 50.90030744 -5.9920692 54.02267099 -13.64453125 54.75390625 C-24.84178358 54.87103232 -33.04138789 53.27841103 -41.37109375 45.48828125 C-46.98547005 38.87579361 -49.5782659 31.09462199 -49.46484375 22.53125 C-48.654781 15.0240406 -45.76887 8.42929977 -40.12890625 3.35546875 C-29.20787048 -5.08164723 -12.2553361 -7.58259097 0 0 Z " fill="#FCFCFC" transform="translate(266.12890625,344.58203125)"/>
</svg>
