<?xml version="1.0" encoding="UTF-8"?>
<svg version="1.1" xmlns="http://www.w3.org/2000/svg" width="515" height="515">
<path d="M0 0 C169.95 0 339.9 0 515 0 C515 169.95 515 339.9 515 515 C345.05 515 175.1 515 0 515 C0 345.05 0 175.1 0 0 Z " fill="#000000" transform="translate(0,0)"/>
<path d="M0 0 C4.49898594 1.79959438 6.98150401 3.35254765 10.6875 6.3125 C15.90953701 10.42407773 21.22381294 14.37693079 26.625 18.25 C32.94900367 22.79056878 39.24009307 27.37143548 45.5 32 C52.70350817 37.32420253 59.94395262 42.59437285 67.21484375 47.82617188 C70.49852799 50.18933801 73.77841194 52.55226599 77 55 C75.86031272 58.41906184 75.24110751 58.79387383 72.34375 60.71484375 C71.57724121 61.22990479 70.81073242 61.74496582 70.02099609 62.27563477 C69.18906738 62.82405029 68.35713867 63.37246582 67.5 63.9375 C65.75186186 65.110874 64.00448047 66.28537615 62.2578125 67.4609375 C61.37383789 68.05358398 60.48986328 68.64623047 59.57910156 69.25683594 C55.80694855 71.80636003 52.08751237 74.42717971 48.375 77.0625 C47.68059814 77.55435791 46.98619629 78.04621582 46.27075195 78.55297852 C44.87335977 79.54314274 43.4763034 80.53378108 42.07958984 81.52490234 C36.50374261 85.47997031 30.91687513 89.41943551 25.32861328 93.35693359 C23.66960231 94.52752951 22.01186028 95.6999247 20.35498047 96.87353516 C17.61402565 98.81490365 14.86975505 100.75150937 12.125 102.6875 C10.83082153 103.60668213 10.83082153 103.60668213 9.51049805 104.54443359 C8.70523682 105.1111377 7.89997559 105.6778418 7.0703125 106.26171875 C6.35633301 106.76662842 5.64235352 107.27153809 4.90673828 107.79174805 C3 109 3 109 0 110 C-0.33 96.47 -0.66 82.94 -1 69 C-24.43320467 76.32287646 -42.19581689 84.97574494 -54 107 C-55.56399389 110.27991862 -56.90263009 113.53731463 -58 117 C-58.53173828 118.51787109 -58.53173828 118.51787109 -59.07421875 120.06640625 C-64.02194862 137.76195618 -59.32349667 157.97607861 -50.9765625 173.7109375 C-45.50050662 182.82326764 -38.6919295 189.92596618 -30 196 C-29.13117188 196.61746094 -28.26234375 197.23492187 -27.3671875 197.87109375 C-12.30040112 207.62883145 6.24174371 210.42700999 23.6875 206.8125 C44.68021961 201.23347069 60.80443531 190.74656934 72 172 C75.17984207 165.76168387 77.17921678 159.44902816 78.9375 152.6875 C80.71617094 146.1705073 83.01476927 141.36072905 88.9453125 137.84765625 C93.4461463 135.99084839 97.74763127 136.55798751 102.1875 138.125 C106.07196678 140.71464452 108.88657021 143.77314041 111 148 C111.71890338 155.73370883 110.47557176 162.25184175 107.875 169.5 C107.55587646 170.4163623 107.23675293 171.33272461 106.90795898 172.27685547 C97.65021476 198.16540197 78.4128542 218.475932 53.85205078 230.42138672 C31.86014659 240.62403829 1.16297882 243.92989125 -22.07861328 235.73632812 C-48.9789895 225.42736565 -72.08023541 206.69051056 -84 180 C-88.28903356 169.06366037 -92.11222672 158.20375419 -92.23828125 146.3828125 C-92.246353 145.64860077 -92.25442474 144.91438904 -92.26274109 144.15792847 C-92.27653611 142.60303063 -92.28727864 141.04810309 -92.29516602 139.49316406 C-92.30659164 137.93219876 -92.32689085 136.37126954 -92.35668945 134.81054688 C-92.62226924 120.86389873 -90.93563472 108.23946399 -84.1875 95.75 C-83.66494629 94.75262817 -83.66494629 94.75262817 -83.13183594 93.73510742 C-82.10946028 91.81059456 -81.06129065 89.9032721 -80 88 C-79.18208984 86.51693359 -79.18208984 86.51693359 -78.34765625 85.00390625 C-64.33114385 61.39173743 -39.96456734 46.30452816 -14 39 C-13.17757812 38.75636719 -12.35515625 38.51273438 -11.5078125 38.26171875 C-7.41517869 37.12659201 -4.37867461 37 0 37 C0 24.79 0 12.58 0 0 Z " fill="#FCFCFC" transform="translate(248,138)"/>
</svg>
