<?xml version="1.0" encoding="UTF-8"?>
<svg version="1.1" xmlns="http://www.w3.org/2000/svg" width="515" height="515">
<path d="M0 0 C169.95 0 339.9 0 515 0 C515 169.95 515 339.9 515 515 C345.05 515 175.1 515 0 515 C0 345.05 0 175.1 0 0 Z " fill="#000000" transform="translate(0,0)"/>
<path d="M0 0 C3.03512758 3.59705844 4.81420878 7.68091794 6.703125 11.9453125 C7.05789413 12.73607178 7.41266327 13.52683105 7.77818298 14.34155273 C8.54199773 16.0462083 9.30346906 17.75191544 10.06283569 19.45855713 C11.25910129 22.14544205 12.46333755 24.82863571 13.66918945 27.51123047 C17.61596288 36.3086478 21.50141708 45.12787925 25.27734375 54 C26.26714166 56.30777958 27.25804065 58.6150837 28.24914551 60.92230225 C29.1681046 63.07947116 30.06614903 65.24456939 30.96386719 67.41064453 C35.06230277 77.27929755 35.06230277 77.27929755 43 84 C50.70638341 86.07888328 58.53631544 86.85160947 66.45703125 87.69140625 C67.85035952 87.84269692 69.2436439 87.99439236 70.6368866 88.14646912 C73.54544567 88.46292596 76.45432854 88.77613172 79.36352539 89.08666992 C83.05852419 89.48111695 86.7528839 89.88119152 90.44704151 90.28343296 C94.01265653 90.67141593 97.57858339 91.05649653 101.14453125 91.44140625 C102.45428421 91.58308731 103.76403717 91.72476837 105.11347961 91.8707428 C111.940424 92.59968459 118.74955161 93.23777813 125.60429382 93.64073181 C128 94 128 94 131 96 C126.57291843 100.53304895 122.06894277 104.88754332 117.265625 109.01953125 C114.46683737 111.46605768 111.73310183 113.98076721 109 116.5 C105.09039134 120.10035014 101.14132993 123.64418073 97.125 127.125 C94.38176355 129.54550275 91.69125414 132.02211255 89 134.5 C83.35466577 139.69441206 77.70258603 144.85999298 71.6875 149.625 C68.04921081 152.8402323 65.71306405 156.15116448 65 161 C64.84216978 165.92860726 65.30386225 170.3167669 66.3203125 175.13671875 C66.45946075 175.80587311 66.59860901 176.47502747 66.74197388 177.16445923 C67.19623295 179.34028597 67.66042933 181.51385379 68.125 183.6875 C68.44423288 185.20520711 68.76291122 186.72303095 69.08105469 188.2409668 C69.88991962 192.09078817 70.70746949 195.93870303 71.52819824 199.78601074 C71.97791435 201.89636028 72.42549217 204.00714851 72.87207031 206.11816406 C75.72479486 219.82138389 75.72479486 219.82138389 78.83789062 233.46630859 C79.25071289 235.17488037 79.25071289 235.17488037 79.671875 236.91796875 C79.92549805 237.94043701 80.17912109 238.96290527 80.44042969 240.01635742 C81.01504921 243.08024274 81.0985275 245.89029835 81 249 C77.36367377 247.62551133 74.02935879 245.99565142 70.640625 244.09375 C69.10450562 243.23342163 69.10450562 243.23342163 67.53735352 242.35571289 C66.45252686 241.74332764 65.3677002 241.13094238 64.25 240.5 C63.12327881 239.86634521 61.99655762 239.23269043 60.83569336 238.57983398 C54.06258794 234.76001348 47.32457564 230.88834045 40.63745117 226.92016602 C33.81075896 222.87119135 26.93773968 218.90321457 20.0625 214.9375 C19.477034 214.59945343 18.89156799 214.26140686 18.2883606 213.91311646 C7.39045844 207.50034602 7.39045844 207.50034602 -5 207 C-8.33531895 208.13063971 -11.19085582 209.79124203 -14.1875 211.625 C-15.03425293 212.11645508 -15.88100586 212.60791016 -16.75341797 213.11425781 C-18.57232182 214.17355041 -20.38502646 215.2435479 -22.19189453 216.32324219 C-25.0200374 218.0119646 -27.86416889 219.66994724 -30.71484375 221.3203125 C-34.70167041 223.63123282 -38.6817882 225.95303404 -42.65625 228.28515625 C-48.89266195 231.94169401 -55.14278866 235.57401466 -61.40203857 239.19128418 C-63.08474482 240.16422447 -64.76626436 241.13921626 -66.44775391 242.11425781 C-67.47819824 242.70948242 -68.50864258 243.30470703 -69.5703125 243.91796875 C-70.47539551 244.44156982 -71.38047852 244.9651709 -72.31298828 245.50463867 C-75.16776809 247.0933654 -78.06809966 248.55933875 -81 250 C-79.29235216 240.21183299 -77.30653325 230.48281501 -75.3125 220.75 C-75.13936279 219.90105164 -74.96622559 219.05210327 -74.7878418 218.1774292 C-72.92474758 209.05198688 -71.02169637 199.9405286 -68.91796875 190.8671875 C-68.75452469 190.15985474 -68.59108063 189.45252197 -68.42268372 188.72375488 C-67.65771167 185.42359766 -66.87971889 182.12773132 -66.08325195 178.83496094 C-63.89056419 169.50399199 -62.12825939 161.64353242 -67.39453125 153.1171875 C-70.13638386 149.50141106 -73.49018711 146.83981358 -77 144 C-78.63338908 142.55106894 -80.25801594 141.0922163 -81.875 139.625 C-82.71804687 138.86445313 -83.56109375 138.10390625 -84.4296875 137.3203125 C-85.27789062 136.55460938 -86.12609375 135.78890625 -87 135 C-88.66640851 133.49971321 -90.33307353 131.99971128 -92 130.5 C-112 112.5 -112 112.5 -114.4765625 110.26953125 C-116.21930323 108.70214369 -117.96423511 107.1371902 -119.7109375 105.57421875 C-120.59007812 104.78660156 -121.46921875 103.99898438 -122.375 103.1875 C-123.16648438 102.47980469 -123.95796875 101.77210938 -124.7734375 101.04296875 C-126.90963025 99.08291821 -128.96654725 97.06595086 -131 95 C-128.0873356 94.02911187 -125.66924015 93.68280939 -122.62426758 93.38330078 C-121.52073441 93.27293488 -120.41720123 93.16256897 -119.28022766 93.04885864 C-118.08044785 92.93218842 -116.88066803 92.81551819 -115.64453125 92.6953125 C-114.39612961 92.5706662 -113.14772797 92.4460199 -111.86149597 92.31759644 C-107.84548069 91.91679252 -103.82905681 91.52032849 -99.8125 91.125 C-77.61688552 88.94057091 -77.61688552 88.94057091 -55.44921875 86.4921875 C-53.98582817 86.33340622 -53.98582817 86.33340622 -52.49287415 86.17141724 C-46.42896992 85.43658068 -41.46169336 84.41489311 -36.9453125 79.984375 C-34.09970197 75.61881989 -32.01605485 70.99366768 -29.875 66.25 C-29.37218506 65.14978516 -28.86937012 64.04957031 -28.35131836 62.91601562 C-22.50723561 50.05295956 -16.86475768 37.09825886 -11.23193359 24.14160156 C-4.10334802 7.77449863 -4.10334802 7.77449863 0 0 Z " fill="#FDFDFD" transform="translate(257,133)"/>
</svg>
