<?xml version="1.0" encoding="UTF-8"?>
<svg version="1.1" xmlns="http://www.w3.org/2000/svg" width="515" height="515">
<path d="M0 0 C169.95 0 339.9 0 515 0 C515 169.95 515 339.9 515 515 C345.05 515 175.1 515 0 515 C0 345.05 0 175.1 0 0 Z " fill="#000000" transform="translate(0,0)"/>
<path d="M0 0 C1.10813079 -0.00339833 1.10813079 -0.00339833 2.23864806 -0.00686532 C4.69725171 -0.01316098 7.15579961 -0.01237883 9.6144104 -0.0115509 C11.38406953 -0.01454514 13.153728 -0.01794828 14.92338562 -0.02172852 C19.71888051 -0.03054515 24.51435754 -0.03290563 29.30985975 -0.0335443 C32.30856098 -0.03425605 35.30725769 -0.03639273 38.30595779 -0.03904152 C48.77482643 -0.04828673 59.24368235 -0.05237738 69.71255493 -0.05158997 C79.45949589 -0.05098917 89.20638151 -0.0615434 98.95330846 -0.07733363 C107.33229214 -0.09042239 115.71125775 -0.09577331 124.09025156 -0.09513456 C129.0899358 -0.09487999 134.08957082 -0.09770837 139.08924484 -0.10831261 C143.79244204 -0.11801623 148.49554317 -0.11805725 153.19874382 -0.11079597 C154.92040714 -0.109753 156.64207651 -0.11209593 158.36372948 -0.11815643 C171.3121253 -0.160769 182.52659793 -0.11030189 192.51919556 9.14543152 C199.66814155 16.62051555 201.52489468 24.54614376 202.97232056 34.57121277 C203.09349243 35.35302917 203.21466431 36.13484558 203.33950806 36.94035339 C204.86587462 47.03594095 205.5193117 56.96979458 205.58560181 67.18058777 C205.59530502 68.41844025 205.60500824 69.65629272 205.61500549 70.93165588 C205.6398501 74.91568243 205.65316437 78.89962415 205.65982056 82.88371277 C205.66126572 83.55824242 205.66271088 84.23277206 205.66419983 84.927742 C205.77033256 146.08502111 205.77033256 146.08502111 192.34732056 160.37590027 C185.42099685 166.46348947 178.73295393 168.28318847 169.71372986 168.28088379 C168.9407873 168.28456048 168.16784475 168.28823717 167.37147969 168.29202527 C164.7791914 168.30304598 162.18694321 168.30690321 159.59463501 168.31071472 C157.73674899 168.31698059 155.87886423 168.32362751 154.02098083 168.33062744 C147.91753002 168.35165562 141.81407898 168.36202871 135.71060181 168.37199402 C133.6082934 168.37604205 131.50598512 168.38015898 129.40367699 168.3843441 C119.52639295 168.40339308 109.64911638 168.4176247 99.77181751 168.42595607 C88.3757278 168.4357276 76.97983236 168.46204624 65.5838111 168.50245696 C56.77177145 168.53263093 47.95978746 168.54742617 39.14769715 168.55073708 C33.88632885 168.55308611 28.62516818 168.56202752 23.36385536 168.58719826 C18.41193263 168.61050628 13.46035383 168.61470117 8.50839043 168.60443687 C6.69480367 168.60394207 4.88119982 168.61024616 3.0676651 168.62399292 C-7.93119454 168.70267458 -17.41111091 168.56178171 -25.96517944 160.75871277 C-26.58006226 160.21472839 -27.19494507 159.67074402 -27.82846069 159.11027527 C-37.31904832 148.8271118 -38.28031984 133.24683269 -39.40267944 119.88371277 C-39.46305389 119.19304718 -39.52342834 118.50238159 -39.58563232 117.79078674 C-41.61745983 94.14669741 -41.76407012 70.09751235 -38.92611694 46.52140808 C-38.64526679 44.06898442 -38.42376387 41.61670825 -38.21517944 39.15715027 C-37.10793644 26.63698108 -34.81182059 15.22783327 -24.88705444 6.59855652 C-17.17620925 0.84894803 -9.49781485 0.01208923 0 0 Z " fill="#FEFEFE" transform="translate(174.65267944335938,172.8662872314453)"/>
<path d="M0 0 C4.07199288 1.62879715 7.86362954 3.43101945 11.71484375 5.4921875 C12.3592038 5.83451416 13.00356384 6.17684082 13.66744995 6.52954102 C15.75899308 7.64185527 17.84839004 8.75812336 19.9375 9.875 C21.37783108 10.64342421 22.8181795 11.41181594 24.25854492 12.18017578 C27.84080594 14.09265762 31.42067434 16.00957071 34.99963379 17.92822266 C36.86716532 18.92882843 38.7356433 19.92763865 40.60449219 20.92578125 C43.67727497 22.56921444 46.74581872 24.22021573 49.8125 25.875 C50.71154053 26.35565918 51.61058105 26.83631836 52.53686523 27.33154297 C53.35614502 27.77643066 54.1754248 28.22131836 55.01953125 28.6796875 C55.72182861 29.05851074 56.42412598 29.43733398 57.14770508 29.82763672 C59.05033458 31.031858 60.47651688 32.35017926 62 34 C47.63913241 41.90172414 33.19801086 49.64252556 18.70507812 57.29858398 C18.03279678 57.65435516 17.36051544 58.01012634 16.66786194 58.37667847 C15.40696631 59.04390605 14.14548206 59.71002301 12.88328552 60.37478638 C10.2857787 61.75005448 7.75434491 63.15504083 5.26782227 64.72436523 C3 66 3 66 0 66 C0 44.22 0 22.44 0 0 Z " fill="#050505" transform="translate(231,224)"/>
</svg>
